<svg xmlns="http://www.w3.org/2000/svg" width="528.47" height="528.48" viewBox="0 0 528.47 528.48"><defs><style>.a{fill:none;stroke:#000;stroke-miterlimit:10;stroke-width:3px;}</style></defs><title>Asset 1</title><ellipse class="a" cx="264.23" cy="264.24" rx="103.84" ry="262.74"/><path class="a" d="M364.68,290.59C327.86,430.94,253,532.93,197.57,518.38S127,378.25,163.79,237.89,275.43-4.45,330.9,10.1,401.5,150.23,364.68,290.59Z"/><path class="a" d="M338,337.31c-102.11,103.1-217.92,154-258.67,113.6s9-156.65,111.12-259.75S408.39,37.21,449.13,77.57,440.13,234.22,338,337.31Z"/><path class="a" d="M316.21,354.14C190.59,426.77,65.49,445.4,36.78,395.75S86.64,247,212.25,174.34,463,83.07,491.69,132.72,441.83,281.5,316.21,354.14Z"/><path class="a" d="M291.84,364.34C152,402.92,26.19,389.37,11,334.08S96.75,202.7,236.63,164.13s265.65-25,280.89,30.27S431.72,325.77,291.84,364.34Z"/><path class="a" d="M263.57,368.08C118.47,367.16,1.14,319.92,1.5,262.57S119.79,159.47,264.9,160.4,527.33,208.56,527,265.91,408.68,369,263.57,368.08Z"/><path class="a" d="M354.37,315.8c-72,126-170.81,205-220.59,176.5S102.05,338.63,174.1,212.68,344.91,7.7,394.69,36.17,426.42,189.84,354.37,315.8Z"/><path class="a" d="M163.79,290.59C200.61,430.94,275.43,532.93,330.9,518.38s70.6-140.13,33.78-280.49S253-4.45,197.57,10.1,127,150.23,163.79,290.59Z"/><path class="a" d="M190.46,337.31c102.11,103.1,217.92,154,258.67,113.6s-9-156.65-111.12-259.75S120.09,37.21,79.34,77.57,88.34,234.22,190.46,337.31Z"/><path class="a" d="M212.25,354.14C337.87,426.77,463,445.4,491.69,395.75S441.83,247,316.22,174.34,65.49,83.07,36.78,132.72,86.64,281.5,212.25,354.14Z"/><path class="a" d="M236.63,364.34c139.89,38.58,265.65,25,280.89-30.26S431.72,202.7,291.84,164.13,26.19,139.11,11,194.4,96.75,325.77,236.63,364.34Z"/><path class="a" d="M174.1,315.8c72,126,170.81,205,220.59,176.5s31.73-153.67-40.32-279.62S183.56,7.7,133.78,36.17,102.05,189.84,174.1,315.8Z"/></svg>